<?xml version="1.0" encoding="utf-8"?>
<svg viewBox="0 0 500 500" xmlns="http://www.w3.org/2000/svg">
  <path fill="#1E3F57" opacity="1.000000" stroke="none" d="M 82.405 159.861 C 83.682 161.142 85.149 162.283 86.209 163.724 C 99.997 182.464 113.699 201.268 127.506 219.996 C 129.436 222.614 129.831 224.795 127.767 227.591 C 113.358 247.113 99.057 266.714 84.701 286.274 C 84.119 287.068 83.326 287.706 82.175 288.299 C 72.526 276.57 63.305 264.981 54.147 253.342 C 46.435 243.54 38.797 233.681 31.26 223.54 C 48.397 202.109 65.401 180.985 82.405 159.861 Z"/>
  <path fill="#1E3F57" opacity="1.000000" stroke="none" d="M 134.721 231.841 C 136.066 233.032 137.673 234.029 138.716 235.443 C 151.076 252.201 163.318 269.045 175.685 285.798 C 177.646 288.455 177.806 290.669 175.924 293.467 C 163.188 312.404 150.574 331.424 137.873 350.386 C 137.061 351.598 135.848 352.543 134.384 353.428 C 133.211 352.147 132.552 350.988 131.728 349.961 C 119.403 334.589 107.004 319.275 94.759 303.84 C 92.543 301.048 90.932 297.777 89.179 294.421 C 91.15 291.557 92.961 288.982 94.818 286.44 C 108.114 268.236 121.419 250.04 134.721 231.841 Z"/>
  <path fill="#1E3F57" opacity="1.000000" d="M 134.637 94.818 C 136.038 96.181 137.73 97.348 138.797 98.936 C 151.161 117.329 163.399 135.807 175.759 154.204 C 177.562 156.888 177.893 159.099 175.843 161.873 C 163.069 179.161 150.422 196.544 137.696 213.867 C 136.923 214.919 135.828 215.735 134.465 216.465 C 124.79 203.311 115.615 190.293 106.248 177.415 C 100.206 169.108 93.883 161.006 87.888 152.528 C 89.669 150.329 91.264 148.427 92.825 146.498 C 106.766 129.274 120.7 112.046 134.637 94.818 Z" stroke="none"/>
  <path fill="#1E3F57" opacity="1.000000" stroke="none" d="M 182.537 165.828 C 183.934 167.453 185.515 168.955 186.702 170.722 C 197.47 186.76 208.094 202.897 218.949 218.876 C 221.31 222.35 221.689 225.047 219.173 228.732 C 207.903 245.234 196.925 261.935 185.808 278.541 C 184.891 279.911 183.717 281.11 182.241 282.247 C 180.076 279.492 178.414 276.82 176.579 274.273 C 164.471 257.471 152.325 240.695 140.363 223.625 C 154.535 204.169 168.536 184.999 182.537 165.828 Z"/>
  <path fill="#68ADC7" opacity="1.000000" stroke="none" d="M 134.451 231.523 C 121.419 250.04 108.114 268.236 94.818 286.44 C 92.961 288.982 91.15 291.557 88.768 294.489 C 86.276 294.863 84.333 294.865 82.39 294.866 C 94.559 278.006 106.726 261.144 118.899 244.286 C 121.238 241.047 123.811 237.954 125.9 234.562 C 127.941 231.246 130.461 229.964 134.451 231.523 Z"/>
  <path fill="#68ACC6" opacity="1.000000" stroke="none" d="M 82.126 159.612 C 65.401 180.985 48.397 202.109 30.836 223.586 C 28.57 223.977 26.862 224.015 25.154 224.053 C 31.944 215.289 38.648 206.456 45.546 197.779 C 54.759 186.191 64.219 174.799 73.356 163.153 C 75.681 160.189 78.207 158.818 82.126 159.612 Z"/>
  <path fill="#3B5F7B" opacity="1.000000" stroke="none" d="M 87.686 152.812 C 93.883 161.006 100.206 169.108 106.248 177.415 C 115.615 190.293 124.79 203.311 134.161 216.594 C 130.384 217.702 127.872 216.113 125.557 212.894 C 112.389 194.589 99.01 176.436 85.724 158.216 C 84.753 156.884 83.952 155.427 83.389 153.497 C 85.033 152.915 86.359 152.863 87.686 152.812 Z"/>
  <path fill="#3B5F7A" opacity="1.000000" stroke="none" d="M 25.237 224.386 C 26.862 224.015 28.57 223.977 30.702 223.893 C 38.797 233.681 46.435 243.54 54.147 253.342 C 63.305 264.981 72.526 276.57 81.882 288.453 C 77.998 289.136 75.324 287.263 72.835 284.12 C 57.091 264.244 41.177 244.504 25.237 224.386 Z"/>
  <path fill="#68ACC6" opacity="1.000000" stroke="none" d="M 182.245 165.577 C 168.536 184.999 154.535 204.169 139.942 223.657 C 137.66 223.964 135.97 223.953 134.28 223.942 C 142.052 213.039 149.794 202.114 157.607 191.24 C 162.926 183.837 168.494 176.608 173.648 169.093 C 175.812 165.939 178.266 164.563 182.245 165.577 Z"/>
  <path fill="#68ACC6" opacity="1.000000" stroke="none" d="M 87.888 152.528 C 86.359 152.863 85.033 152.915 83.34 153.156 C 82.763 152.752 82.186 151.86 82.393 151.604 C 97.252 133.275 112.097 114.932 127.218 96.821 C 128.584 95.185 131.767 95.066 134.371 94.53 C 120.7 112.046 106.766 129.274 92.825 146.498 C 91.264 148.427 89.669 150.329 87.888 152.528 Z"/>
  <path fill="#3B5F7A" opacity="1.000000" stroke="none" d="M 134.36 224.276 C 135.97 223.953 137.66 223.964 139.771 223.944 C 152.325 240.695 164.471 257.471 176.579 274.273 C 178.414 276.82 180.076 279.492 181.95 282.399 C 178.236 283.078 175.609 281.511 173.321 278.312 C 160.463 260.338 147.42 242.497 134.36 224.276 Z"/>
  <path fill="#3B5F7A" opacity="1.000000" stroke="none" d="M 82.443 295.204 C 84.333 294.865 86.276 294.863 88.63 294.794 C 90.932 297.777 92.543 301.048 94.759 303.84 C 107.004 319.275 119.403 334.589 131.728 349.961 C 132.552 350.988 133.211 352.147 134.076 353.552 C 131.834 352.957 128.615 352.75 127.219 351.049 C 112.146 332.681 97.36 314.079 82.443 295.204 Z"/>
  <text style="fill: rgb(30, 63, 87); font-family: Arial, sans-serif; font-size: 11.8864px; letter-spacing: 2.9px; line-height: 19.0183px; paint-order: fill markers; stroke: rgb(107, 178, 205); stroke-dashoffset: 29px; stroke-linecap: round; stroke-linejoin: bevel; stroke-miterlimit: 1; stroke-opacity: 0.31; stroke-width: 2.00525px; word-spacing: -2.7px; white-space: pre;" transform="matrix(8.427458, 0, 0, 8.665337, -1747.404053, -1160.260498)" x="234.199" y="163.657">TTS</text>
  <text style="white-space: pre; fill: rgb(51, 51, 51); font-family: Arial, sans-serif; font-size: 15.8px;" x="661.964" y="91.986"> </text>
</svg>