<?xml version="1.0" encoding="utf-8"?>
<svg viewBox="0 0 500 500" xmlns="http://www.w3.org/2000/svg">
  <path fill="#1E3F57" opacity="1.000000" stroke="none" d="M 236.835 186.759 C 238.112 188.04 239.579 189.181 240.639 190.622 C 254.427 209.362 268.129 228.166 281.936 246.894 C 283.866 249.512 284.261 251.693 282.197 254.489 C 267.788 274.011 253.487 293.612 239.131 313.172 C 238.549 313.966 237.756 314.604 236.605 315.197 C 226.956 303.468 217.735 291.879 208.577 280.24 C 200.865 270.438 193.227 260.579 185.69 250.438 C 202.827 229.007 219.831 207.883 236.835 186.759 Z"/>
  <path fill="#1E3F57" opacity="1.000000" stroke="none" d="M 289.151 258.739 C 290.496 259.93 292.103 260.927 293.146 262.341 C 305.506 279.099 317.748 295.943 330.115 312.696 C 332.076 315.353 332.236 317.567 330.354 320.365 C 317.618 339.302 305.004 358.322 292.303 377.284 C 291.491 378.496 290.278 379.441 288.814 380.326 C 287.641 379.045 286.982 377.886 286.158 376.859 C 273.833 361.487 261.434 346.173 249.189 330.738 C 246.973 327.946 245.362 324.675 243.609 321.319 C 245.58 318.455 247.391 315.88 249.248 313.338 C 262.544 295.134 275.849 276.938 289.151 258.739 Z"/>
  <path fill="#1E3F57" opacity="1.000000" stroke="none" d="M 289.067 121.716 C 290.468 123.079 292.16 124.246 293.227 125.834 C 305.591 144.227 317.829 162.705 330.189 181.102 C 331.992 183.786 332.323 185.997 330.273 188.771 C 317.499 206.059 304.852 223.442 292.126 240.765 C 291.353 241.817 290.258 242.633 288.895 243.363 C 279.22 230.209 270.045 217.191 260.678 204.313 C 254.636 196.006 248.313 187.904 242.318 179.426 C 244.099 177.227 245.694 175.325 247.255 173.396 C 261.196 156.172 275.13 138.944 289.067 121.716 Z"/>
  <path fill="#1E3F57" opacity="1.000000" stroke="none" d="M 336.967 192.726 C 338.364 194.351 339.945 195.853 341.132 197.62 C 351.9 213.658 362.524 229.795 373.379 245.774 C 375.74 249.248 376.119 251.945 373.603 255.63 C 362.333 272.132 351.355 288.833 340.238 305.439 C 339.321 306.809 338.147 308.008 336.671 309.145 C 334.506 306.39 332.844 303.718 331.009 301.171 C 318.901 284.369 306.755 267.593 294.793 250.523 C 308.965 231.067 322.966 211.897 336.967 192.726 Z"/>
  <path fill="#68ADC7" opacity="1.000000" stroke="none" d="M 288.881 258.421 C 275.849 276.938 262.544 295.134 249.248 313.338 C 247.391 315.88 245.58 318.455 243.198 321.387 C 240.706 321.761 238.763 321.763 236.82 321.764 C 248.989 304.904 261.156 288.042 273.329 271.184 C 275.668 267.945 278.241 264.852 280.33 261.46 C 282.371 258.144 284.891 256.862 288.881 258.421 Z"/>
  <path fill="#68ACC6" opacity="1.000000" stroke="none" d="M 236.556 186.51 C 219.831 207.883 202.827 229.007 185.266 250.484 C 183 250.875 181.292 250.913 179.584 250.951 C 186.374 242.187 193.078 233.354 199.976 224.677 C 209.189 213.089 218.649 201.697 227.786 190.051 C 230.111 187.087 232.637 185.716 236.556 186.51 Z"/>
  <path fill="#3B5F7B" opacity="1.000000" stroke="none" d="M 242.116 179.71 C 248.313 187.904 254.636 196.006 260.678 204.313 C 270.045 217.191 279.22 230.209 288.591 243.492 C 284.814 244.6 282.302 243.011 279.987 239.792 C 266.819 221.487 253.44 203.334 240.154 185.114 C 239.183 183.782 238.382 182.325 237.819 180.395 C 239.463 179.813 240.789 179.761 242.116 179.71 Z"/>
  <path fill="#3B5F7A" opacity="1.000000" stroke="none" d="M 179.667 251.284 C 181.292 250.913 183 250.875 185.132 250.791 C 193.227 260.579 200.865 270.438 208.577 280.24 C 217.735 291.879 226.956 303.468 236.312 315.351 C 232.428 316.034 229.754 314.161 227.265 311.018 C 211.521 291.142 195.607 271.402 179.667 251.284 Z"/>
  <path fill="#68ACC6" opacity="1.000000" stroke="none" d="M 336.675 192.475 C 322.966 211.897 308.965 231.067 294.372 250.555 C 292.09 250.862 290.4 250.851 288.71 250.84 C 296.482 239.937 304.224 229.012 312.037 218.138 C 317.356 210.735 322.924 203.506 328.078 195.991 C 330.242 192.837 332.696 191.461 336.675 192.475 Z"/>
  <path fill="#68ACC6" opacity="1.000000" stroke="none" d="M 242.318 179.426 C 240.789 179.761 239.463 179.813 237.77 180.054 C 237.193 179.65 236.616 178.758 236.823 178.502 C 251.682 160.173 266.527 141.83 281.648 123.719 C 283.014 122.083 286.197 121.964 288.801 121.428 C 275.13 138.944 261.196 156.172 247.255 173.396 C 245.694 175.325 244.099 177.227 242.318 179.426 Z"/>
  <path fill="#3B5F7A" opacity="1.000000" stroke="none" d="M 288.79 251.174 C 290.4 250.851 292.09 250.862 294.201 250.842 C 306.755 267.593 318.901 284.369 331.009 301.171 C 332.844 303.718 334.506 306.39 336.38 309.297 C 332.666 309.976 330.039 308.409 327.751 305.21 C 314.893 287.236 301.85 269.395 288.79 251.174 Z"/>
  <path fill="#3B5F7A" opacity="1.000000" stroke="none" d="M 236.873 322.102 C 238.763 321.763 240.706 321.761 243.06 321.692 C 245.362 324.675 246.973 327.946 249.189 330.738 C 261.434 346.173 273.833 361.487 286.158 376.859 C 286.982 377.886 287.641 379.045 288.506 380.45 C 286.264 379.855 283.045 379.648 281.649 377.947 C 266.576 359.579 251.79 340.977 236.873 322.102 Z"/>
</svg>